<?xml version="1.0" encoding="utf-8"?>
<!-- Generator: Adobe Illustrator 16.0.4, SVG Export Plug-In . SVG Version: 6.00 Build 0)  -->
<!DOCTYPE svg PUBLIC "-//W3C//DTD SVG 1.1//EN" "http://www.w3.org/Graphics/SVG/1.1/DTD/svg11.dtd">
<svg version="1.1" id="レイヤー_1" xmlns="http://www.w3.org/2000/svg" xmlns:xlink="http://www.w3.org/1999/xlink" x="0px"
	 y="0px" width="320px" height="320px" viewBox="0 0 320 320" enable-background="new 0 0 320 320" xml:space="preserve">
<rect x="256.255" y="45.884" fill="#FFFFFF" width="0" height="2.154"/>
<g>
	
		<line fill="none" stroke="#C9CACA" stroke-width="5" stroke-linecap="round" stroke-miterlimit="10" x1="141.028" y1="48.038" x2="152.516" y2="84.652"/>
	
		<line fill="none" stroke="#C9CACA" stroke-width="5" stroke-linecap="round" stroke-miterlimit="10" x1="152.516" y1="84.652" x2="222.871" y2="149.982"/>
	
		<line fill="none" stroke="#C9CACA" stroke-width="5" stroke-linecap="round" stroke-miterlimit="10" x1="152.516" y1="84.652" x2="110.157" y2="84.652"/>
	
		<line fill="none" stroke="#C9CACA" stroke-width="5" stroke-linecap="round" stroke-miterlimit="10" x1="110.157" y1="84.652" x2="95.081" y2="74.354"/>
	
		<line fill="none" stroke="#C9CACA" stroke-width="5" stroke-linecap="round" stroke-miterlimit="10" x1="95.081" y1="74.354" x2="42.673" y2="79.503"/>
	
		<line fill="none" stroke="#C9CACA" stroke-width="5" stroke-linecap="round" stroke-miterlimit="10" x1="42.673" y1="79.503" x2="46.263" y2="117.317"/>
	
		<line fill="none" stroke="#C9CACA" stroke-width="5" stroke-linecap="round" stroke-miterlimit="10" x1="46.263" y1="117.317" x2="81.441" y2="124.855"/>
	
		<line fill="none" stroke="#C9CACA" stroke-width="5" stroke-linecap="round" stroke-miterlimit="10" x1="81.441" y1="124.855" x2="116.618" y2="158.478"/>
	
		<line fill="none" stroke="#C9CACA" stroke-width="5" stroke-linecap="round" stroke-miterlimit="10" x1="116.618" y1="158.478" x2="131.336" y2="141.667"/>
	
		<line fill="none" stroke="#C9CACA" stroke-width="5" stroke-linecap="round" stroke-miterlimit="10" x1="131.336" y1="141.667" x2="127.388" y2="117.317"/>
	
		<line fill="none" stroke="#C9CACA" stroke-width="5" stroke-linecap="round" stroke-miterlimit="10" x1="127.388" y1="117.317" x2="74.979" y2="91.831"/>
	
		<line fill="none" stroke="#C9CACA" stroke-width="5" stroke-linecap="round" stroke-miterlimit="10" x1="74.979" y1="91.831" x2="68.877" y2="76.929"/>
	
		<line fill="none" stroke="#C9CACA" stroke-width="5" stroke-linecap="round" stroke-miterlimit="10" x1="129.956" y1="133.161" x2="143.721" y2="124.855"/>
	
		<line fill="none" stroke="#C9CACA" stroke-width="5" stroke-linecap="round" stroke-miterlimit="10" x1="143.721" y1="124.855" x2="160.95" y2="129.008"/>
	
		<line fill="none" stroke="#C9CACA" stroke-width="5" stroke-linecap="round" stroke-miterlimit="10" x1="160.95" y1="129.008" x2="171.181" y2="124.855"/>
	
		<line fill="none" stroke="#C9CACA" stroke-width="5" stroke-linecap="round" stroke-miterlimit="10" x1="171.181" y1="124.855" x2="171.181" y2="114.805"/>
	
		<line fill="none" stroke="#C9CACA" stroke-width="5" stroke-linecap="round" stroke-miterlimit="10" x1="171.181" y1="114.805" x2="178.875" y2="109.128"/>
	
		<line fill="none" stroke="#C9CACA" stroke-width="5" stroke-linecap="round" stroke-miterlimit="10" x1="116.618" y1="158.478" x2="129.361" y2="187.494"/>
	
		<line fill="none" stroke="#C9CACA" stroke-width="5" stroke-linecap="round" stroke-miterlimit="10" x1="129.361" y1="187.494" x2="146.772" y2="193.417"/>
	
		<line fill="none" stroke="#C9CACA" stroke-width="5" stroke-linecap="round" stroke-miterlimit="10" x1="146.772" y1="193.417" x2="160.95" y2="184.264"/>
	
		<line fill="none" stroke="#C9CACA" stroke-width="5" stroke-linecap="round" stroke-miterlimit="10" x1="146.772" y1="193.417" x2="157.182" y2="229.492"/>
	
		<line fill="none" stroke="#C9CACA" stroke-width="5" stroke-linecap="round" stroke-miterlimit="10" x1="157.182" y1="229.492" x2="205.641" y2="238.107"/>
	
		<line fill="none" stroke="#C9CACA" stroke-width="5" stroke-linecap="round" stroke-miterlimit="10" x1="205.641" y1="238.107" x2="282.1" y2="238.107"/>
	
		<line fill="none" stroke="#C9CACA" stroke-width="5" stroke-linecap="round" stroke-miterlimit="10" x1="259.485" y1="193.417" x2="259.485" y2="275.799"/>
	
		<line fill="none" stroke="#C9CACA" stroke-width="5" stroke-linecap="round" stroke-miterlimit="10" x1="230.948" y1="238.107" x2="230.948" y2="273.106"/>
	
		<line fill="none" stroke="#C9CACA" stroke-width="5" stroke-linecap="round" stroke-miterlimit="10" x1="198.148" y1="236.775" x2="175.027" y2="245.646"/>
	
		<line fill="none" stroke="#C9CACA" stroke-width="5" stroke-linecap="round" stroke-miterlimit="10" x1="129.361" y1="187.494" x2="110.157" y2="203.647"/>
	<g>
		<g>
			
				<line fill="none" stroke="#000000" stroke-width="5" stroke-miterlimit="10" x1="21.331" y1="252.646" x2="32.831" y2="252.646"/>
			
				<line fill="none" stroke="#000000" stroke-width="5" stroke-miterlimit="10" stroke-dasharray="23.5292,17.3911" x1="50.223" y1="252.646" x2="287.049" y2="252.646"/>
			
				<line fill="none" stroke="#000000" stroke-width="5" stroke-miterlimit="10" x1="295.744" y1="252.646" x2="307.244" y2="252.646"/>
		</g>
	</g>
	
		<line fill="none" stroke="#C9CACA" stroke-width="5" stroke-linecap="round" stroke-miterlimit="10" x1="46.263" y1="117.317" x2="29.032" y2="129.492"/>
</g>
<g>
	<polygon fill="#E36F90" points="66.857,79.503 45.59,81.959 48.686,114.805 82.742,122.612 116.618,154.784 128.51,140.919 
		124.875,119.247 72.78,93.671 	"/>
</g>
<g>
	<circle fill="#154F99" stroke="#000000" stroke-width="3" stroke-miterlimit="10" cx="129.361" cy="56.912" r="7.129"/>
	
		<line fill="#154F99" stroke="#000000" stroke-width="3" stroke-miterlimit="10" x1="129.361" y1="64.041" x2="129.361" y2="76.705"/>
	
		<line fill="#154F99" stroke="#000000" stroke-width="3" stroke-miterlimit="10" x1="122.231" y1="76.705" x2="136.49" y2="76.705"/>
</g>
<path fill="#89C346" d="M157.182,45.884"/>
<polyline fill="#58B684" stroke="#C9CACA" stroke-width="5" stroke-miterlimit="10" points="151.977,45.884 161.758,79.503 
	201.334,109.128 236.512,109.128 268.818,88.242 268.818,46.306 "/>
<rect x="214.795" y="245.646" fill="#154F99" stroke="#000000" stroke-width="3" stroke-miterlimit="10" width="41.46" height="13.461"/>
<text transform="matrix(1 0 0 1 104.1455 43.0132)" fill="#154F99" font-family="'BokutachinoGothic-83pv-RKSJ-H'" font-size="16.1533">滝の上</text>
<text transform="matrix(1 0 0 1 211.2959 278.8506)" fill="#154F99" font-family="'BokutachinoGothic-83pv-RKSJ-H'" font-size="16.1533">山手駅</text>
<text transform="matrix(1 0 0 1 10.5908 66.3452)" fill="#E36F90" font-family="'BokutachinoGothic-83pv-RKSJ-H'" font-size="21.5377">聖光学院</text>
<g>
	<path fill-rule="evenodd" clip-rule="evenodd" d="M249.26,230.885c0,1.354,1.099,2.452,2.454,2.452h15.545
		c1.354,0,2.453-1.099,2.453-2.452v-2.783c0-1.355-1.099-2.453-2.453-2.453h-15.545c-1.355,0-2.454,1.098-2.454,2.453V230.885z"/>
	<g>
		<path fill-rule="evenodd" clip-rule="evenodd" fill="#F7CE65" d="M261.944,229.518c-0.006,1.348-1.116,2.46-2.464,2.471
			c-1.362,0.01-2.5-1.125-2.499-2.489c0.002-1.366,1.144-2.511,2.491-2.501C260.837,227.009,261.95,228.144,261.944,229.518z"/>
		<path fill-rule="evenodd" clip-rule="evenodd" fill="#48A0D9" d="M253.85,231.93c-1.37-0.001-2.434-1.051-2.438-2.41
			c-0.006-1.385,1.07-2.471,2.442-2.463c1.367,0.008,2.481,1.123,2.463,2.469C256.3,230.861,255.203,231.93,253.85,231.93z"/>
		<path fill-rule="evenodd" clip-rule="evenodd" fill="#E56661" d="M265.16,227.119c1.304,0,2.386,1.064,2.4,2.359
			c0.016,1.303-1.08,2.384-2.421,2.389c-1.298,0.006-2.385-1.066-2.396-2.359C262.734,228.203,263.833,227.117,265.16,227.119z"/>
	</g>
</g>
<circle fill-rule="evenodd" clip-rule="evenodd" cx="213.09" cy="229.493" r="2.692"/>
<circle fill-rule="evenodd" clip-rule="evenodd" cx="200.84" cy="227.119" r="2.692"/>
<circle fill-rule="evenodd" clip-rule="evenodd" cx="241.717" cy="223.35" r="2.692"/>
<circle fill-rule="evenodd" clip-rule="evenodd" cx="267.561" cy="220.657" r="2.692"/>
<circle fill-rule="evenodd" clip-rule="evenodd" cx="157.182" cy="200.955" r="2.692"/>
<circle fill-rule="evenodd" clip-rule="evenodd" cx="131.336" cy="178.341" r="2.692"/>
<circle fill-rule="evenodd" clip-rule="evenodd" cx="116.618" cy="187.494" r="2.692"/>
<circle fill-rule="evenodd" clip-rule="evenodd" cx="116.618" cy="94.523" r="2.692"/>
<text transform="matrix(1 0 0 1 241.7178 176.187)" font-family="'BokutachinoGothic-83pv-RKSJ-H'" font-size="8.6151" glyph-orientation-vertical="0" writing-mode="tb">立野小学校</text>
<text transform="matrix(1 0 0 1 267.5615 157.3413)" font-family="'BokutachinoGothic-83pv-RKSJ-H'" font-size="8.6151" glyph-orientation-vertical="0" writing-mode="tb">セブンイレブン</text>
<text transform="matrix(1 0 0 1 213.0908 209.3008)" font-family="'BokutachinoGothic-83pv-RKSJ-H'" font-size="8.6151" glyph-orientation-vertical="0" writing-mode="tb">交番</text>
<text transform="matrix(1 0 0 1 200.8408 164.0718)" font-family="'BokutachinoGothic-83pv-RKSJ-H'" font-size="8.6151" glyph-orientation-vertical="0" writing-mode="tb">スーパートップ</text>
<text transform="matrix(1 0 0 1 157.7979 212.5322)"><tspan x="0" y="0" font-family="'BokutachinoGothic-83pv-RKSJ-H'" font-size="8.6151">仲尾台</tspan><tspan x="4.308" y="12.384" font-family="'BokutachinoGothic-83pv-RKSJ-H'" font-size="8.6151">公園</tspan></text>
<text transform="matrix(1 0 0 1 134.5674 181.0337)" font-family="'BokutachinoGothic-83pv-RKSJ-H'" font-size="8.6151">山手スーパー</text>
<text transform="matrix(1 0 0 1 87.9014 190.4561)" font-family="'BokutachinoGothic-83pv-RKSJ-H'" font-size="8.6151">鮮魚店</text>
<text transform="matrix(1 0 0 1 121.1055 96.1392)"><tspan x="0" y="0" font-family="'BokutachinoGothic-83pv-RKSJ-H'" font-size="8.6151">さゆり</tspan><tspan x="0" y="12.384" font-family="'BokutachinoGothic-83pv-RKSJ-H'" font-size="8.6151">幼稚園</tspan></text>
<text transform="matrix(1 0 0 1 282.4756 247.8003)" font-family="'BokutachinoGothic-83pv-RKSJ-H'" font-size="8.6151">→横浜</text>
<text transform="matrix(1 0 0 1 19.1602 246.7231)" font-family="'BokutachinoGothic-83pv-RKSJ-H'" font-size="8.6151">大船←</text>
<text transform="matrix(1 0 0 1 102.6201 155.7266)" font-family="'BokutachinoGothic-83pv-RKSJ-H'" font-size="8.6151" glyph-orientation-vertical="0" writing-mode="tb">正門</text>
<g>
	<g>
		<line fill="none" stroke="#FFFFFF" stroke-miterlimit="10" x1="230.948" y1="238.107" x2="228.948" y2="238.107"/>
		
			<line fill="none" stroke="#FFFFFF" stroke-miterlimit="10" stroke-dasharray="4.2615,4.2615" x1="224.687" y1="238.107" x2="209.771" y2="238.107"/>
		<line fill="none" stroke="#FFFFFF" stroke-miterlimit="10" x1="207.641" y1="238.107" x2="205.641" y2="238.107"/>
	</g>
</g>
<g>
	<g>
		<line fill="none" stroke="#FFFFFF" stroke-miterlimit="10" x1="205.641" y1="238.107" x2="203.672" y2="237.758"/>
		
			<line fill="none" stroke="#FFFFFF" stroke-miterlimit="10" stroke-dasharray="4.1108,4.1108" x1="199.624" y1="237.038" x2="161.175" y2="230.203"/>
		<line fill="none" stroke="#FFFFFF" stroke-miterlimit="10" x1="159.15" y1="229.843" x2="157.182" y2="229.492"/>
	</g>
</g>
<g>
	<g>
		<line fill="none" stroke="#FFFFFF" stroke-miterlimit="10" x1="157.182" y1="229.492" x2="156.627" y2="227.571"/>
		
			<line fill="none" stroke="#FFFFFF" stroke-miterlimit="10" stroke-dasharray="3.7275,3.7275" x1="155.594" y1="223.99" x2="147.844" y2="197.129"/>
		<line fill="none" stroke="#FFFFFF" stroke-miterlimit="10" x1="147.327" y1="195.338" x2="146.772" y2="193.417"/>
	</g>
</g>
<g>
	<g>
		<line fill="none" stroke="#FFFFFF" stroke-miterlimit="10" x1="146.772" y1="193.417" x2="144.879" y2="192.773"/>
		
			<line fill="none" stroke="#FFFFFF" stroke-miterlimit="10" stroke-dasharray="4.797,4.797" x1="140.338" y1="191.229" x2="133.525" y2="188.91"/>
		<line fill="none" stroke="#FFFFFF" stroke-miterlimit="10" x1="131.255" y1="188.139" x2="129.361" y2="187.494"/>
	</g>
</g>
<g>
	<g>
		<line fill="none" stroke="#FFFFFF" stroke-miterlimit="10" x1="129.361" y1="187.494" x2="128.456" y2="185.711"/>
		
			<line fill="none" stroke="#FFFFFF" stroke-miterlimit="10" stroke-dasharray="3.6317,3.6317" x1="126.812" y1="182.473" x2="114.481" y2="158.186"/>
		<line fill="none" stroke="#FFFFFF" stroke-miterlimit="10" x1="113.659" y1="156.566" x2="112.754" y2="154.784"/>
	</g>
</g>
</svg>
